<svg xmlns="http://www.w3.org/2000/svg" viewBox="0 0 205 33" height="40" aria-label="Booz Allen Hamilton">
  <g transform="matrix(1.25,0,0,-1.25,-14.96282,150.46422)">
    <g transform="matrix(0.84027869,0,0,0.84027869,10.16646,22.438167)">
      <path fill="currentColor" d="m 15.091,95.787 0,4.762 2.876,0 c 0.718,0 1.527,0 2.066,-0.449 0.629,-0.449 0.988,-1.258 0.988,-1.977 0,-0.719 -0.269,-1.348 -0.808,-1.797 -0.539,-0.449 -1.348,-0.539 -2.067,-0.539 l -3.055,0 z m 0,5.93 0,4.223 2.876,0 c 0.629,0 1.167,0 1.707,-0.27 0.629,-0.359 0.988,-0.988 0.988,-1.707 0,-0.629 -0.359,-1.347 -0.809,-1.707 -0.629,-0.539 -1.527,-0.539 -2.336,-0.539 l -2.426,0 z m 3.145,-7.188 c 1.168,0 2.156,0.09 3.055,0.809 0.898,0.718 1.258,1.617 1.258,2.695 0,1.618 -1.078,2.876 -2.606,3.235 1.348,0.359 2.246,1.437 2.246,2.785 0,1.078 -0.539,1.977 -1.347,2.516 -0.899,0.539 -1.618,0.629 -2.606,0.629 l -4.672,0 0,-12.669 4.672,0"/>
      <path fill="currentColor" d="m 25.514,99.291 c 0,0.809 0.09,1.707 0.449,2.336 0.449,0.809 1.258,1.348 2.157,1.348 0.808,0 1.617,-0.449 2.066,-1.078 0.449,-0.809 0.539,-1.707 0.539,-2.606 0,-0.808 -0.09,-1.617 -0.449,-2.426 -0.449,-0.809 -1.168,-1.348 -2.156,-1.348 -0.899,0 -1.708,0.45 -2.067,1.168 -0.449,0.809 -0.539,1.798 -0.539,2.606 z m -1.617,0 c 0,-2.426 1.258,-4.942 4.043,-4.942 2.875,0 4.402,2.336 4.402,4.942 0,2.426 -1.347,4.852 -4.132,4.852 -2.786,0 -4.313,-2.246 -4.313,-4.852"/>
      <path fill="currentColor" d="m 35.308,99.291 c 0,0.809 0.09,1.707 0.449,2.336 0.359,0.809 1.258,1.348 2.156,1.348 0.809,0 1.528,-0.449 1.977,-1.078 0.539,-0.809 0.629,-1.707 0.629,-2.606 0,-0.808 -0.09,-1.617 -0.449,-2.426 -0.45,-0.809 -1.258,-1.348 -2.157,-1.348 -0.898,0 -1.707,0.45 -2.066,1.168 -0.449,0.809 -0.539,1.798 -0.539,2.606 z m -1.618,0 c 0,-2.426 1.258,-4.942 4.044,-4.942 2.875,0 4.313,2.336 4.313,4.942 0,2.426 -1.348,4.852 -4.044,4.852 -2.785,0 -4.313,-2.246 -4.313,-4.852"/>
      <path fill="currentColor" d="m 49.863,103.065 -5.121,-7.368 5.121,0 0,-1.168 -6.918,0 0,1.168 5.032,7.098 -4.583,0 0,1.079 6.469,0 0,-0.809"/>
      <path fill="currentColor" d="m 58.04,90.396 1.168,0 0,19.498 -1.168,0 0,-19.498 z"/>
      <path fill="currentColor" d="m 73.225,99.471 -3.864,0 1.887,6.02 1.977,-6.02 z m -0.989,7.727 -1.707,0 -4.133,-12.669 1.348,0 1.168,3.684 4.672,0 1.258,-3.684 1.527,0 -4.133,12.669"/>
      <path fill="currentColor" d="m 87.062,100.19 c 0,1.437 1.078,2.875 2.695,2.875 1.618,0 2.606,-1.348 2.516,-2.875 l -5.211,0 z m 5.301,-2.876 c -0.449,-1.078 -1.348,-1.797 -2.516,-1.797 -0.988,0 -2.067,0.629 -2.516,1.528 -0.359,0.629 -0.359,1.348 -0.359,2.066 l 6.828,0 c 0.09,2.606 -1.167,5.032 -4.043,5.032 -2.785,0 -4.313,-2.336 -4.313,-4.942 0,-2.605 1.438,-4.852 4.223,-4.852 1.797,0 3.415,1.078 4.044,2.786 l -1.348,0.179"/>
      <path fill="currentColor" d="m 97.215,102.346 0.09,0 c 0.449,0.988 1.617,1.797 2.875,1.797 1.168,0 2.067,-0.449 2.696,-1.438 0.449,-0.808 0.359,-2.066 0.359,-2.965 l 0,-5.211 -1.438,0 0,5.84 c 0,0.54 0.09,1.169 -0.179,1.707 -0.36,0.54 -0.989,0.809 -1.618,0.809 -0.808,0 -1.437,-0.359 -1.977,-0.898 -0.539,-0.719 -0.718,-1.618 -0.718,-2.516 l 0,-4.942 -1.438,0 0,9.345 1.348,0 0,-1.528"/>
      <path fill="currentColor" d="m 183.292,102.346 0,0 c 0.449,0.988 1.617,1.797 2.875,1.797 1.168,0 2.066,-0.449 2.696,-1.438 0.449,-0.808 0.449,-2.066 0.449,-2.965 l 0,-5.211 -1.438,0 0,5.84 c 0,0.54 0,1.169 -0.269,1.707 -0.36,0.54 -0.989,0.809 -1.618,0.809 -0.719,0 -1.437,-0.359 -1.886,-0.898 -0.629,-0.719 -0.809,-1.618 -0.809,-2.516 l 0,-4.942 -1.438,0 0,9.345 1.438,0 0,-1.528"/>
      <path fill="currentColor" d="m 111.501,90.396 1.168,0 0,19.498 -1.168,0 0,-19.498 z"/>
      <path fill="currentColor" d="m 128.932,94.529 0,6.11 -5.84,0 0,-6.11 -1.438,0 0,12.669 1.438,0 0,-5.391 5.84,0 0,5.391 1.527,0 0,-12.669 -1.527,0"/>
      <path fill="currentColor" d="m 138.816,98.662 c 0,-1.617 -1.168,-3.145 -2.875,-3.145 -1.169,0 -2.067,0.45 -2.067,1.618 0,1.886 2.067,2.156 3.774,2.156 l 1.168,0 0,-0.629 z m -1.168,1.707 c -1.168,0 -2.516,-0.089 -3.505,-0.539 -0.988,-0.449 -1.707,-1.527 -1.707,-2.605 0,-1.887 1.438,-2.876 3.235,-2.876 1.437,0 2.516,0.629 3.145,1.977 l 0.179,-1.797 1.438,0 c -0.18,0.629 -0.269,1.348 -0.269,1.977 l 0,3.684 c 0,0.988 0,2.246 -0.719,3.055 -0.719,0.808 -1.797,0.898 -2.786,0.898 -1.707,0 -3.683,-0.629 -3.953,-2.605 l 1.258,-0.18 c 0.269,1.258 1.437,1.617 2.516,1.617 1.617,0 2.336,-0.539 2.336,-2.246 l 0,-0.36 -1.168,0"/>
      <path fill="currentColor" d="m 144.027,103.874 0,-1.618 c 0.449,0.989 1.528,1.887 2.786,1.887 1.347,0 2.425,-0.988 2.605,-2.067 0.539,1.169 1.617,2.067 3.055,2.067 0.988,0 1.887,-0.539 2.336,-1.348 0.449,-0.808 0.449,-1.797 0.449,-2.695 l 0,-5.571 -1.437,0 0,5.571 c 0,0.629 0,1.348 -0.27,1.887 -0.269,0.629 -0.898,0.988 -1.527,0.988 -0.719,0 -1.438,-0.449 -1.797,-1.078 -0.539,-0.719 -0.539,-1.438 -0.539,-2.336 l 0,-5.032 -1.438,0 0,5.93 c 0,0.539 0,1.168 -0.27,1.617 -0.359,0.54 -0.988,0.899 -1.617,0.899 -0.629,0 -1.258,-0.449 -1.707,-0.899 -0.449,-0.628 -0.539,-1.437 -0.539,-2.156 l 0,-5.391 -1.438,0 0,9.345 1.348,0"/>
      <path fill="currentColor" d="m 157.864,103.874 1.438,0 0,-9.344 -1.438,0 0,9.344 z m -0.09,3.324 1.617,0 0,-1.617 -1.617,0 0,1.617 z"/>
      <path fill="currentColor" d="m 162.267,94.529 1.348,0 0,12.669 -1.348,0 0,-12.669 z"/>
      <path fill="currentColor" d="m 77.807,94.529 1.348,0 0,12.669 -1.348,0 0,-12.669 z"/>
      <path fill="currentColor" d="m 82.12,94.529 1.348,0 0,12.669 -1.348,0 0,-12.669 z"/>
      <path fill="currentColor" d="m 170.892,94.529 -1.347,-0.18 c -2.067,0 -2.696,1.258 -2.696,3.055 l 0,5.391 -1.617,0 0,1.168 1.617,0 0,2.336 1.438,0.09 0,-2.426 2.066,0 0,-1.168 -2.066,0 0,-5.57 c 0,-1.079 0.359,-1.708 1.527,-1.708 l 1.078,0.09 0,-1.078"/>
      <path fill="currentColor" d="m 173.229,99.291 c 0,0.809 0.089,1.707 0.449,2.336 0.359,0.809 1.168,1.348 2.066,1.348 0.899,0 1.618,-0.449 2.067,-1.078 0.539,-0.809 0.629,-1.707 0.629,-2.606 0,-0.808 -0.09,-1.617 -0.449,-2.426 -0.45,-0.809 -1.258,-1.348 -2.247,-1.348 -0.808,0 -1.617,0.45 -1.976,1.168 -0.45,0.809 -0.539,1.798 -0.539,2.606 z m -1.618,0 c 0,-2.426 1.258,-4.942 4.043,-4.942 2.876,0 4.313,2.336 4.313,4.942 0,2.426 -1.347,4.852 -4.043,4.852 -2.875,0 -4.313,-2.246 -4.313,-4.852"/>
    </g>
  </g>
</svg>
